<?xml version="1.0" encoding="utf-8"?>
<?xml-stylesheet type="text/xsl" href="rss1.xsl"?>
<rss version="2.0" xmlns:atom="http://www.w3.org/2005/Atom" xmlns:content="http://purl.org/rss/1.0/modules/content/" xmlns:dc="http://purl.org/dc/elements/1.1/" xmlns:media="http://search.yahoo.com/mrss/">
<channel>
 <title>Getty</title>
 <link>http://www.gettyimg.com/</link>
 <atom:link href="http://www.gettyimg.com/" rel="self" type="application/rss+xml" />

 
                <item>
                <title><![CDATA[【Music Videos】Anne-Marie - Alarm (Marshmello Remix) (vjstreet Pool)]]></title>
                <link><![CDATA[https://sharemania.us/threads/anne-marie-alarm-marshmello-remix-vjstreet-pool.222661/]]></link>
                <description><![CDATA[<article>
<blockquote class="messageText SelectQuoteContainer ugc baseHtml">
<img src="https://i.imgur.com/LtKtYoR.jpg" class="bbCodeImage LbImage" alt="[​IMG]" data-url="https://i.imgur.com/LtKtYoR.jpg" style=""> <br>
<img src="https://i.imgur.com/QbiVjKo.jpg" class="bbCodeImage LbImage" alt="[​IMG]" data-url="https://i.imgur.com/QbiVjKo.jpg" style=""> <br>
<span style="font-size: 18px"><b>Anne-Marie - Alarm (Marshmello Remix)</b></span><br>
BPM:71<br>
File size:99.15 Mb<br>
Video format:H264<br>
Video codec:ffh264<br>
Code:R64060<br>
Video bitrate:3029520<br>
Size:1280x720<br>
Length:04:04<br>
FPS:23.9760<br>
Audio format:MP4A<br>
Audio codec:ffaac<br>
Audio bitrate:321520<br>
Ripped From <a href="https://www.vjstreet.com/" target="_blank" class="externalLink" rel="nofollow">vjstreet</a><br>
<b><br>
[/URL]
<div class="bbCodeBlock bbCodeVfcHH HiddenContent">
<div class="attribution type">Hidden Content:</div>
<blockquote>You must reply before you can see the hidden data contained here.</blockquote>
</div></b>
<div class="messageTextEndMarker">&nbsp;</div>
</blockquote>
</article>]]></description>
                <author><![CDATA[gamerfronts]]></author>
                </item>

                
                <item>
                <title><![CDATA[【VEVO】WEB-RiP - Gloria Estefan, Miami Sound Machine - Conga [VevoRip Clean AVC 1080p] - 1985]]></title>
                <link><![CDATA[https://sharemania.us/threads/gloria-estefan-miami-sound-machine-conga-vevorip-clean-avc-1080p-1985.222660/]]></link>
                <description><![CDATA[<article>
<blockquote class="messageText SelectQuoteContainer ugc baseHtml">
<div style="text-align: center"><img src="https://i.imgur.com/HDvF1pR.png" class="bbCodeImage LbImage" alt="[​IMG]" data-url="https://i.imgur.com/HDvF1pR.png" style=""><br>
<br>
<img src="https://i.imgur.com/SMYYYkA.png" class="bbCodeImage LbImage" alt="[​IMG]" data-url="https://i.imgur.com/SMYYYkA.png" style="">​</div><br>
<div class="ToggleTriggerAnchor bbCodeSpoilerContainer">
<button type="button" class="button bbCodeSpoilerButton ToggleTrigger Tooltip JsOnly" data-target="> .SpoilerTarget"><span>Spoiler: <span class="SpoilerTitle">MediaInfo</span></span></button>
<div class="SpoilerTarget bbCodeSpoilerText">
<div class="bbCodeBlock bbCodeCode">
<div class="type">Code:</div>
<pre>General
Complete name                  : Gloria Estefan, Miami Sound Machine - Conga [VevoRip Clean AVC 1080p] - 1985.mp4
Format                         : MPEG-4
Format profile                 : Base Media
Codec ID                       : isom (isom/iso2/avc1/mp41)
File size                      : 203 MiB
Duration                       : 5 min 21 s
Overall bit rate               : 5 306 kb/s
Frame rate                     : 25.000 FPS
Writing application            : Lavf59.16.100

Video
ID                             : 1
Format                         : AVC
Format/Info                    : Advanced Video Codec
Format profile                 : Main@L4
Format settings                : CABAC / 4 Ref Frames
Format settings, CABAC         : Yes
Format settings, Reference fra : 4 frames
Codec ID                       : avc1
Codec ID/Info                  : Advanced Video Coding
Duration                       : 5 min 21 s
Source duration                : 5 min 20 s
Bit rate                       : 5 173 kb/s
Width                          : 1 920 pixels
Height                         : 1 080 pixels
Display aspect ratio           : 16:9
Frame rate mode                : Constant
Frame rate                     : 25.000 FPS
Color space                    : YUV
Chroma subsampling             : 4:2:0
Bit depth                      : 8 bits
Scan type                      : Progressive
Bits/(Pixel*Frame)             : 0.100
Stream size                    : 190 MiB (93%)
Source stream size             : 198 MiB (97%)
Writing library                : x264 core 144 r2 40bb568
Encoding settings              : cabac=1 / ref=4 / deblock=1:0:0 / analyse=0x1:0x111 / me=umh / subme=8 / psy=1 / psy_rd=1.00:0.00 / mixed_ref=1 / me_range=16 / chroma_me=1 / trellis=1 / 8x8dct=0 / cqm=0 / deadzone=21,11 / fast_pskip=1 / chroma_qp_offset=-2 / threads=12 / lookahead_threads=2 / sliced_threads=0 / nr=0 / decimate=1 / interlaced=0 / bluray_compat=0 / constrained_intra=0 / bframes=3 / b_pyramid=2 / b_adapt=1 / b_bias=0 / direct=1 / weightb=1 / open_gop=0 / weightp=2 / keyint=250 / keyint_min=25 / scenecut=40 / intra_refresh=0 / rc_lookahead=50 / rc=cbr / mbtree=1 / bitrate=5200 / ratetol=1.0 / qcomp=0.60 / qpmin=0 / qpmax=69 / qpstep=4 / vbv_maxrate=5200 / vbv_bufsize=5200 / nal_hrd=none / filler=0 / ip_ratio=1.40 / aq=1:1.00
Codec configuration box        : avcC

Audio
ID                             : 2
Format                         : AAC LC
Format/Info                    : Advanced Audio Codec Low Complexity
Codec ID                       : mp4a-40-2
Duration                       : 5 min 20 s
Bit rate mode                  : Constant
Bit rate                       : 128 kb/s
Channel(s)                     : 2 channels
Channel layout                 : L R
Sampling rate                  : 44.1 kHz
Frame rate                     : 43.066 FPS (1024 SPF)
Compression mode               : Lossy
Stream size                    : 4.90 MiB (2%)
Default                        : Yes
Alternate group                : 1
</pre>
</div></div>
</div><br>
<div style="text-align: center"><b>DOWNLOAD LINK</b><br>
<img src="https://i.imgur.com/yRbU0vs.png" class="bbCodeImage LbImage" alt="[​IMG]" data-url="https://i.imgur.com/yRbU0vs.png" style=""><br>
<div class="bbCodeBlock bbCodeVfcHH HiddenContent">
<div class="attribution type">Hidden Content:</div>
<blockquote>You must either reply or click 'Like' to see the hidden information contained here.</blockquote>
</div></div>
<div class="messageTextEndMarker">&nbsp;</div>
</blockquote>
</article>]]></description>
                <author><![CDATA[ElFunadisimo]]></author>
                </item>

                
                <item>
                <title><![CDATA[【VEVO】WEB-RiP - TheFatRat - Dancing Naked [VevoRip Clean AVC 720p] - 2013]]></title>
                <link><![CDATA[https://sharemania.us/threads/thefatrat-dancing-naked-vevorip-clean-avc-720p-2013.222662/]]></link>
                <description><![CDATA[<article>
<blockquote class="messageText SelectQuoteContainer ugc baseHtml">
<div style="text-align: center"><img src="https://i.imgur.com/vDOZeBR.png" class="bbCodeImage LbImage" alt="[​IMG]" data-url="https://i.imgur.com/vDOZeBR.png" style=""><br>
<br>
<img src="https://i.imgur.com/xhSXqCV.png" class="bbCodeImage LbImage" alt="[​IMG]" data-url="https://i.imgur.com/xhSXqCV.png" style="">​</div><br>
<div class="ToggleTriggerAnchor bbCodeSpoilerContainer">
<button type="button" class="button bbCodeSpoilerButton ToggleTrigger Tooltip JsOnly" data-target="> .SpoilerTarget"><span>Spoiler: <span class="SpoilerTitle">MediaInfo</span></span></button>
<div class="SpoilerTarget bbCodeSpoilerText">
<div class="bbCodeBlock bbCodeCode">
<div class="type">Code:</div>
<pre>General
Complete name                  : TheFatRat - Dancing Naked [VevoRip Clean AVC 720p] - 2013.mp4
Format                         : MPEG-4
Format profile                 : Base Media
Codec ID                       : isom (isom/iso2/avc1/mp41)
File size                      : 36.0 MiB
Duration                       : 4 min 38 s
Overall bit rate               : 1 085 kb/s
Frame rate                     : 24.000 FPS
Movie name                     : Dancing Naked
Performer                      : TheFatRat
Genre                          : Electronic
Recorded date                  : 20130917
Writing application            : Lavf59.16.100

Video
ID                             : 1
Format                         : AVC
Format/Info                    : Advanced Video Codec
Format profile                 : Main@L3.1
Format settings                : CABAC / 4 Ref Frames
Format settings, CABAC         : Yes
Format settings, Reference fra : 4 frames
Codec ID                       : avc1
Codec ID/Info                  : Advanced Video Coding
Duration                       : 4 min 38 s
Bit rate                       : 951 kb/s
Width                          : 1 280 pixels
Height                         : 720 pixels
Display aspect ratio           : 16:9
Frame rate mode                : Constant
Frame rate                     : 24.000 FPS
Color space                    : YUV
Chroma subsampling             : 4:2:0
Bit depth                      : 8 bits
Scan type                      : Progressive
Bits/(Pixel*Frame)             : 0.043
Stream size                    : 31.5 MiB (88%)
Writing library                : x264 core 148
Encoding settings              : cabac=1 / ref=3 / deblock=1:0:0 / analyse=0x1:0x131 / me=umh / subme=10 / psy=1 / psy_rd=0.50:0.00 / mixed_ref=1 / me_range=24 / chroma_me=1 / trellis=2 / 8x8dct=0 / cqm=0 / deadzone=21,11 / fast_pskip=1 / chroma_qp_offset=-2 / threads=8 / lookahead_threads=1 / sliced_threads=0 / nr=0 / decimate=1 / interlaced=0 / bluray_compat=0 / constrained_intra=0 / bframes=3 / b_pyramid=2 / b_adapt=1 / b_bias=0 / direct=1 / weightb=1 / open_gop=0 / weightp=2 / keyint=125 / keyint_min=10 / scenecut=40 / intra_refresh=0 / rc_lookahead=60 / rc=crf / mbtree=1 / crf=23.5 / qcomp=0.55 / qpmin=0 / qpmax=69 / qpstep=4 / vbv_maxrate=2000 / vbv_bufsize=2000 / crf_max=0.0 / nal_hrd=none / filler=0 / ip_ratio=1.40 / aq=1:1.00
Codec configuration box        : avcC

Audio
ID                             : 2
Format                         : AAC LC
Format/Info                    : Advanced Audio Codec Low Complexity
Codec ID                       : mp4a-40-2
Duration                       : 4 min 38 s
Source duration                : 4 min 38 s
Bit rate mode                  : Constant
Bit rate                       : 128 kb/s
Channel(s)                     : 2 channels
Channel layout                 : L R
Sampling rate                  : 44.1 kHz
Frame rate                     : 43.066 FPS (1024 SPF)
Compression mode               : Lossy
Stream size                    : 4.24 MiB (12%)
Source stream size             : 4.25 MiB (12%)
Default                        : Yes
Alternate group                : 1
</pre>
</div></div>
</div><br>
<div style="text-align: center"><b>DOWNLOAD LINK</b><br>
<img src="https://i.imgur.com/yRbU0vs.png" class="bbCodeImage LbImage" alt="[​IMG]" data-url="https://i.imgur.com/yRbU0vs.png" style=""><br>
<div class="bbCodeBlock bbCodeVfcHH HiddenContent">
<div class="attribution type">Hidden Content:</div>
<blockquote>You must either reply or click 'Like' to see the hidden information contained here.</blockquote>
</div></div>
<div class="messageTextEndMarker">&nbsp;</div>
</blockquote>
</article>]]></description>
                <author><![CDATA[ElFunadisimo]]></author>
                </item>

                </channel></rss>